REM DIRINDEX 1\2,1\3,1\4,1\5,1\6
REM DIRNAME cjc129,folder01,folder02,folder03,folder04,folder05
TITLE ""
FILE "DISC3Track09.mp3" MP3
  TRACK 01 AUDIO
    TITLE "0:"
    INDEX 01 00:00:00
  TRACK 02 AUDIO
    TITLE "3:cjc129_2271"
    INDEX 01 00:00:05
  TRACK 03 AUDIO
    TITLE "0:"
    INDEX 01 00:01:24
  TRACK 04 AUDIO
    TITLE "5:cjc129_2272"
    INDEX 01 00:01:60
  TRACK 05 AUDIO
    TITLE "0:"
    INDEX 01 00:05:34
  TRACK 06 AUDIO
    TITLE "4:cjc129_2273"
    INDEX 01 00:06:22
  TRACK 07 AUDIO
    TITLE "0:"
    INDEX 01 00:07:43
  TRACK 08 AUDIO
    TITLE "6:cjc129_2274"
    INDEX 01 00:08:01
  TRACK 09 AUDIO
    TITLE "0:"
    INDEX 01 00:14:29
  TRACK 10 AUDIO
    TITLE "3:cjc129_2275"
    INDEX 01 00:16:08
  TRACK 11 AUDIO
    TITLE "0:"
    INDEX 01 00:17:16
  TRACK 12 AUDIO
    TITLE "5:cjc129_2276"
    INDEX 01 00:17:47
  TRACK 13 AUDIO
    TITLE "0:"
    INDEX 01 00:21:31
  TRACK 14 AUDIO
    TITLE "4:cjc129_2277"
    INDEX 01 00:22:19
  TRACK 15 AUDIO
    TITLE "0:"
    INDEX 01 00:23:28
  TRACK 16 AUDIO
    TITLE "6:cjc129_2278"
    INDEX 01 00:23:59
  TRACK 17 AUDIO
    TITLE "0:"
    INDEX 01 00:27:73
  TRACK 18 AUDIO
    TITLE "3:cjc129_2279"
    INDEX 01 00:29:50
  TRACK 19 AUDIO
    TITLE "0:"
    INDEX 01 00:30:73
  TRACK 20 AUDIO
    TITLE "5:cjc129_2280"
    INDEX 01 00:31:27
  TRACK 21 AUDIO
    TITLE "0:"
    INDEX 01 00:35:59
  TRACK 22 AUDIO
    TITLE "4:cjc129_2281"
    INDEX 01 00:36:48
  TRACK 23 AUDIO
    TITLE "0:"
    INDEX 01 00:37:67
  TRACK 24 AUDIO
    TITLE "6:cjc129_2282"
    INDEX 01 00:38:28
  TRACK 25 AUDIO
    TITLE "0:"
    INDEX 01 00:43:13
  TRACK 26 AUDIO
    TITLE "3:cjc129_2283"
    INDEX 01 00:44:61
  TRACK 27 AUDIO
    TITLE "0:"
    INDEX 01 00:46:04
  TRACK 28 AUDIO
    TITLE "5:cjc129_2284"
    INDEX 01 00:46:35
  TRACK 29 AUDIO
    TITLE "0:"
    INDEX 01 00:52:41
  TRACK 30 AUDIO
    TITLE "4:cjc129_2285"
    INDEX 01 00:53:29
  TRACK 31 AUDIO
    TITLE "0:"
    INDEX 01 00:54:46
  TRACK 32 AUDIO
    TITLE "6:cjc129_2286"
    INDEX 01 00:55:06
  TRACK 33 AUDIO
    TITLE "0:"
    INDEX 01 00:59:02
  TRACK 34 AUDIO
    TITLE "2:cjc129_2287"
    INDEX 01 01:00:51
  TRACK 35 AUDIO
    TITLE "0:"
    INDEX 01 01:04:68
  TRACK 36 AUDIO
    TITLE "3:cjc129_2288"
    INDEX 01 01:06:04
  TRACK 37 AUDIO
    TITLE "0:"
    INDEX 01 01:07:19
  TRACK 38 AUDIO
    TITLE "5:cjc129_2289"
    INDEX 01 01:07:51
  TRACK 39 AUDIO
    TITLE "0:"
    INDEX 01 01:11:52
  TRACK 40 AUDIO
    TITLE "4:cjc129_2290"
    INDEX 01 01:12:42
  TRACK 41 AUDIO
    TITLE "0:"
    INDEX 01 01:13:61
  TRACK 42 AUDIO
    TITLE "6:cjc129_2291"
    INDEX 01 01:14:16
  TRACK 43 AUDIO
    TITLE "0:"
    INDEX 01 01:18:13
  TRACK 44 AUDIO
    TITLE "3:cjc129_2292"
    INDEX 01 01:19:66
  TRACK 45 AUDIO
    TITLE "0:"
    INDEX 01 01:21:16
  TRACK 46 AUDIO
    TITLE "5:cjc129_2293"
    INDEX 01 01:21:45
  TRACK 47 AUDIO
    TITLE "0:"
    INDEX 01 01:24:73
  TRACK 48 AUDIO
    TITLE "4:cjc129_2294"
    INDEX 01 01:25:62
  TRACK 49 AUDIO
    TITLE "0:"
    INDEX 01 01:27:10
  TRACK 50 AUDIO
    TITLE "6:cjc129_2295"
    INDEX 01 01:27:42
  TRACK 51 AUDIO
    TITLE "0:"
    INDEX 01 01:33:44
  TRACK 52 AUDIO
    TITLE "3:cjc129_2296"
    INDEX 01 01:35:18
  TRACK 53 AUDIO
    TITLE "0:"
    INDEX 01 01:36:37
  TRACK 54 AUDIO
    TITLE "5:cjc129_2297"
    INDEX 01 01:36:66
  TRACK 55 AUDIO
    TITLE "0:"
    INDEX 01 01:40:64
  TRACK 56 AUDIO
    TITLE "4:cjc129_2298"
    INDEX 01 01:41:54
  TRACK 57 AUDIO
    TITLE "0:"
    INDEX 01 01:42:73
  TRACK 58 AUDIO
    TITLE "6:cjc129_2299"
    INDEX 01 01:43:27
  TRACK 59 AUDIO
    TITLE "0:"
    INDEX 01 01:47:52
  TRACK 60 AUDIO
    TITLE "3:cjc129_2300"
    INDEX 01 01:49:30
  TRACK 61 AUDIO
    TITLE "0:"
    INDEX 01 01:50:47
  TRACK 62 AUDIO
    TITLE "5:cjc129_2301"
    INDEX 01 01:51:01
  TRACK 63 AUDIO
    TITLE "0:"
    INDEX 01 01:55:07
  TRACK 64 AUDIO
    TITLE "4:cjc129_2302"
    INDEX 01 01:55:71
  TRACK 65 AUDIO
    TITLE "0:"
    INDEX 01 01:57:11
  TRACK 66 AUDIO
    TITLE "6:cjc129_2303"
    INDEX 01 01:57:43
  TRACK 67 AUDIO
    TITLE "0:"
    INDEX 01 02:01:19
  TRACK 68 AUDIO
    TITLE "3:cjc129_2304"
    INDEX 01 02:02:71
  TRACK 69 AUDIO
    TITLE "0:"
    INDEX 01 02:04:19
  TRACK 70 AUDIO
    TITLE "5:cjc129_2305"
    INDEX 01 02:04:51
  TRACK 71 AUDIO
    TITLE "0:"
    INDEX 01 02:08:52
  TRACK 72 AUDIO
    TITLE "4:cjc129_2306"
    INDEX 01 02:09:44
  TRACK 73 AUDIO
    TITLE "0:"
    INDEX 01 02:10:67
  TRACK 74 AUDIO
    TITLE "6:cjc129_2307"
    INDEX 01 02:11:23
  TRACK 75 AUDIO
    TITLE "0:"
    INDEX 01 02:16:01
